<svg xmlns="http://www.w3.org/2000/svg" width="121" height="36" viewBox="0 0 121 36">
  <path fill="#FFF" d="M19.9671968,21.5069583 C20.5039761,21.5069583 20.861829,21.0775348 20.861829,20.7554672 C20.861829,20.1829026 20.6829026,19.6819085 20.6829026,19.2166998 C20.6829026,17.6421471 21.5417495,14.7077535 22.6153082,12.166998 C23.6530815,12.3101392 24.2256461,12.4532803 24.7266402,12.5964215 C25.084493,12.7037773 25.7286282,12.8469185 26.0149105,12.8469185 C26.4801193,12.8469185 26.694831,12.4532803 26.694831,12.0238569 C26.694831,11.415507 26.1222664,11.2365805 25.1202783,11.1292247 C24.6908549,11.0934394 23.2236581,10.8429423 23.2236581,10.8429423 C24.6192843,8.01590457 25.94334,5.51093439 27.6968191,3.18489066 C28.3409543,2.32604374 28.8419483,1.75347913 28.8419483,1.2166998 C28.8419483,0.500994036 28.4840954,0.107355865 27.6968191,0.107355865 C26.9095427,0.107355865 25.94334,1.07355865 24.583499,2.46918489 C21.5417495,5.54671968 19.2872763,7.87276342 16.9254473,10.2345924 C15.6013917,10.1630219 14.0984095,10.1272366 12.7027833,10.1272366 C7.19184891,10.1272366 6.11829026,11.3081511 6.11829026,12.1312127 C6.11829026,12.667992 6.44035785,13.0974155 7.01292247,13.0974155 C7.29920477,13.0974155 7.65705765,12.8111332 7.90755467,12.5248509 C8.26540755,12.0954274 9.51789264,11.4512922 12.6312127,11.4512922 C13.5258449,11.4512922 14.6351889,11.4870775 15.4940358,11.5586481 L15.1085483,11.8961382 C11.5063377,15.0503731 7.78909303,18.2862823 4.472167,18.2862823 C3.11232604,18.2862823 2.6471173,17.6063618 2.6471173,16.8906561 C2.6471173,16.3538767 2.57554672,15.7455268 1.7166998,15.7455268 C0.965208748,15.7455268 0.5,16.2823062 0.5,17.0337972 C0.5,18.2147117 1.78827038,19.860835 4.7584493,19.860835 C8.62326044,19.860835 13.3827038,15.7097416 17.6769384,11.666004 C18.5357853,11.7017893 19.5019881,11.8091451 20.7902584,11.9522863 C19.5377734,14.9582505 18.6431412,18.2147117 18.6431412,19.860835 C18.6431412,20.9701789 19.3588469,21.5069583 19.9671968,21.5069583 Z M21.3628231,10.6640159 C20.5755467,10.55666 19.7524851,10.4850895 18.9294235,10.4493042 C21.2554672,8.15904573 23.8677932,5.33200795 25.1560636,3.93638171 C23.6530815,6.26242545 22.1858847,8.98210736 21.3628231,10.6640159 Z M24.0467197,20.1471173 C24.583499,20.1471173 24.583499,19.610338 25.0487078,18.6799205 C25.4423459,17.8568588 25.94334,16.6759443 26.6232604,15.7097416 C27.804175,13.9920477 29.7007952,12.8469185 30.0944334,12.8469185 C30.3807157,12.8469185 30.5954274,12.9184891 30.5954274,13.2763419 C30.5954274,13.8131213 30.0228628,15.4950298 29.5934394,16.8906561 C29.3071571,17.7137177 28.9850895,18.4294235 28.9850895,18.6799205 C28.9850895,19.359841 29.5218688,19.7176938 29.9512922,19.7176938 C30.416501,19.7176938 30.7385686,19.1451292 31.0964215,18.2862823 C31.6332008,16.9622266 34.4960239,13.2763419 35.5337972,13.2763419 C35.6769384,13.2763419 35.7842942,13.4194831 35.7842942,13.5626243 C35.7842942,14.3856859 34.9970179,16.2823062 34.9970179,17.7137177 C34.9970179,19.0019881 35.6053678,19.7534791 36.6789264,19.7534791 C38.6471173,19.7534791 41.5099404,16.2107356 42.6550696,14.7435388 C43.084493,14.2067594 43.2634195,13.9562624 43.2634195,13.5626243 C43.2634195,13.2047714 43.0129225,13.0258449 42.6908549,13.0258449 C42.2972167,13.0258449 41.832008,13.5984095 41.4025845,14.1351889 C40.1858847,15.7813121 38.1461233,18.1789264 37.0367793,18.1789264 C36.750497,18.1789264 36.6431412,17.9284294 36.6431412,17.5347913 C36.6431412,15.9244533 37.6451292,14.3141153 37.6451292,12.7753479 C37.6451292,11.916501 36.8578529,11.4870775 36.249503,11.4870775 C35.1759443,11.4870775 33.3866799,12.7395626 32.2057654,14.1351889 C32.3131213,13.6341948 32.4204771,13.0616302 32.4204771,12.4890656 C32.4204771,11.4512922 31.2395626,11.0934394 30.5596421,11.0934394 C29.7007952,11.0934394 27.9473161,12.3817097 26.9095427,13.5984095 C27.2316103,12.7395626 27.9115308,11.1650099 27.9115308,10.6640159 C27.9115308,9.98409543 27.4821074,9.80516899 26.9811133,9.80516899 C26.5874751,9.80516899 26.1580517,10.306163 25.8717694,11.2007952 C24.2972167,16.1033797 23.2236581,18.4294235 23.2236581,19.1809145 C23.2236581,19.7534791 23.6888668,20.1471173 24.0467197,20.1471173 Z M40.2932406,36 C44.8021869,36 47.8081511,28.4850895 48.5238569,23.2246521 C48.7743539,23.1530815 49.167992,23.1172962 49.3111332,23.1172962 C50.277336,23.1172962 50.9572565,23.5109344 50.9572565,23.833002 C50.9572565,24.2624254 50.8499006,24.4771372 50.8499006,24.7634195 C50.8499006,25.2644135 51.1003976,25.6222664 51.7445328,25.6222664 C52.5318091,25.6222664 52.889662,24.8707753 52.889662,24.1908549 C52.889662,22.5089463 51.0646123,21.72167 49.3469185,21.72167 C49.167992,21.72167 48.917495,21.7574553 48.7385686,21.7932406 C48.8101392,20.7196819 48.9532803,19.4314115 49.2753479,14.8151093 C49.3469185,13.7057654 49.5974155,12.9184891 49.7763419,12.4532803 C49.8836978,12.2027833 49.9194831,11.9880716 49.9194831,11.7733598 C49.9194831,11.2007952 49.4900596,11.1292247 49.167992,11.1292247 C48.8459245,11.1292247 48.0586481,11.5228628 47.7365805,11.8091451 C47.5576541,11.9522863 47.0208748,12.8827038 46.4840954,13.6341948 C45.804175,14.6719682 43.2992048,18.0357853 42.4403579,18.0357853 C42.2614314,18.0357853 42.2256461,17.8926441 42.2256461,17.6779324 C42.2256461,17.3558648 43.1918489,14.4572565 43.9075547,13.3479125 C44.3369781,12.667992 44.6232604,12.2743539 44.6232604,11.9522863 C44.6232604,11.5586481 44.3011928,11.2007952 43.6928429,11.2007952 C43.0487078,11.2007952 42.5119284,11.8449304 42.0109344,13.0616302 C41.5457256,14.1351889 40.4363817,17.2842942 40.4363817,18.2862823 C40.4363817,19.3240557 41.0805169,19.860835 41.7962227,19.860835 C43.7286282,19.860835 46.6630219,15.9602386 47.5576541,14.6003976 C47.5576541,15.1371769 47.1640159,19.2882704 46.8777336,22.0079523 C46.1978131,22.2942346 43.3349901,23.7256461 41.2594433,26.0159046 C38.7544732,28.7355865 37.7166998,31.7415507 37.7166998,33.4234592 C37.7166998,35.0337972 38.9333996,36 40.2932406,36 Z M40.3648111,34.640159 C39.8280318,34.640159 39.3628231,34.139165 39.3628231,33.5308151 C39.3628231,32.2425447 40.1858847,29.666004 42.1540755,27.5188867 C44.0149105,25.44334 46.0904573,24.0477137 46.7703777,23.6898608 C46.3409543,27.4115308 43.5854871,34.640159 40.3648111,34.640159 Z M64.1262425,20.7912525 C66.9532803,20.7912525 70.4244533,18.1431412 73.2514911,14.7077535 C75.3986083,14.3499006 77.3310139,13.9562624 78.3687873,13.526839 C79.1560636,13.2047714 79.6212724,12.9184891 79.6212724,12.2385686 C79.6212724,11.8449304 79.2992048,11.6302187 78.9055666,11.6302187 C78.6550696,11.6302187 78.2972167,11.7733598 78.0467197,11.8807157 C77.1878728,12.2385686 75.971173,12.5964215 74.7544732,12.8469185 C76.5795229,10.1272366 77.9393638,6.79920477 77.9393638,4.15109344 C77.9393638,1.14512922 75.971173,0 72.7147117,0 C66.8101392,0 59.0089463,4.43737575 59.0089463,10.3419483 C59.0089463,11.5228628 59.5815109,12.5606362 60.7266402,13.3121272 C60.3687873,14.3499006 60.1540755,15.4234592 60.1540755,16.3180915 C60.1540755,18.8946322 61.5139165,20.7912525 64.1262425,20.7912525 Z M68.8856859,13.4910537 C66.3807157,13.4910537 64.305169,13.0616302 63.0168986,12.5606362 C64.7703777,8.73161034 68.8141153,4.18687873 72.1421471,4.18687873 C72.8578529,4.18687873 73.3230616,3.972167 73.3230616,3.54274354 C73.3230616,3.18489066 72.7862823,2.57654076 71.8916501,2.57654076 C68.1699801,2.57654076 63.6252485,7.22862823 61.4423459,11.5944334 C61.1202783,11.1292247 60.8697813,10.4850895 60.8697813,9.94831014 C60.8697813,5.08151093 67.9552684,1.61033797 72.8578529,1.61033797 C75.2196819,1.61033797 76.1143141,2.68389662 76.1143141,4.29423459 C76.1143141,6.97813121 74.3250497,10.4850895 72.2852883,13.2405567 C71.1759443,13.3836978 70.0666004,13.4910537 68.8856859,13.4910537 Z M64.6630219,19.1093439 C62.8021869,19.1093439 61.94334,17.7852883 61.94334,16.139165 C61.94334,15.5666004 62.1222664,14.8151093 62.3369781,14.1351889 C63.8757455,14.7077535 66.3449304,15.0298211 68.8141153,15.0298211 C69.4582505,15.0298211 70.2097416,15.0298211 70.9254473,14.9582505 C68.8856859,17.3916501 66.2017893,19.1093439 64.6630219,19.1093439 Z M77.5457256,19.7534791 C78.9413519,19.7534791 80.5516899,18.4652087 82.1262425,16.9264414 C82.1262425,18.5725646 82.2693837,19.5029821 83.5934394,19.5029821 C85.2395626,19.5029821 87.6371769,16.7833002 89.3190855,14.7435388 C89.7485089,14.2067594 89.9274354,13.9562624 89.9274354,13.5626243 C89.9274354,13.2047714 89.6769384,13.0258449 89.3548708,13.0258449 C88.9612326,13.0258449 88.4960239,13.5984095 88.0666004,14.1351889 C86.8141153,15.7813121 84.666998,18 83.8797217,18 C83.7007952,18 83.5218688,17.8210736 83.5218688,17.3916501 C83.5218688,15.9960239 84.2733598,14.0994036 85.0964215,12.9542744 C85.3469185,12.5964215 85.5974155,12.3101392 85.5974155,11.9880716 C85.5974155,11.5944334 85.3469185,11.2365805 84.7743539,11.2365805 C84.3091451,11.2365805 83.9512922,11.7375746 83.6292247,12.2027833 L83.5708939,12.2880399 C83.2698273,12.7334505 82.9601482,13.2774264 82.0188867,14.9582505 C80.945328,16.4970179 78.6550696,18.250497 78.0467197,18.250497 C77.832008,18.250497 77.7604374,18 77.7604374,17.8210736 C77.7604374,17.3916501 78.1898608,16.640159 78.6192843,15.888668 C79.2634195,14.7435388 79.94334,13.3479125 79.94334,12.1312127 C79.94334,11.4512922 79.7286282,11.0218688 79.084493,11.0218688 C78.3687873,11.0218688 78.1182903,11.4870775 78.1182903,12.3817097 C78.1182903,13.3479125 77.6172962,14.4572565 76.973161,15.4950298 C76.4005964,16.4254473 75.8996024,17.3200795 75.8996024,18.1431412 C75.8996024,18.7514911 76.2574553,19.7534791 77.5457256,19.7534791 Z M92.9333996,23.2962227 C93.4701789,23.2962227 93.7206759,22.9383698 93.7206759,22.4373757 C93.7206759,21.9005964 93.2554672,21.5427435 93.2554672,20.9343936 C93.2554672,19.1093439 95.3667992,13.526839 97.3707753,9.98409543 C98.3369781,9.66202783 99.5536779,9.1610338 100.269384,9.1610338 C100.698807,9.1610338 101.020875,9.30417495 101.020875,9.4473161 C101.020875,9.62624254 100.913519,9.84095427 100.913519,10.0198807 C100.913519,10.2345924 101.020875,10.3419483 101.342942,10.3419483 C101.700795,10.3419483 102.595427,9.55467197 102.595427,8.8389662 C102.595427,8.01590457 101.951292,7.65805169 100.627237,7.65805169 C99.9115308,7.65805169 99.195825,7.80119284 98.5874751,7.98011928 C99.5894632,6.19085487 100.340954,5.00994036 100.841948,4.65208748 C101.557654,4.07952286 101.700795,3.79324056 101.700795,3.32803181 C101.700795,2.79125249 101.450298,2.50497018 100.806163,2.50497018 C100.269384,2.50497018 99.8399602,2.93439364 99.2316103,3.79324056 C98.5874751,4.65208748 97.5497018,6.44135189 96.2972167,8.62425447 C95.3310139,9.05367793 93.4343936,9.51888668 92.0029821,9.51888668 C92.7902584,8.05168986 94.6510934,5.58250497 95.2594433,5.08151093 C95.9751491,4.54473161 96.0467197,4.2584493 96.0467197,3.82902584 C96.0467197,3.39960239 95.6172962,3.0417495 95.1163022,3.0417495 C94.6868787,3.0417495 94.1858847,3.54274354 93.5417495,4.40159046 C92.5755467,5.61829026 91.4662028,7.30019881 90.4284294,9.23260437 C89.9632207,9.23260437 89.5337972,8.5526839 88.889662,8.5526839 C88.3170974,8.5526839 87.9592445,9.01789264 87.9592445,9.48310139 C87.9592445,10.2345924 88.9254473,10.6282306 89.6411531,10.7355865 C88.388668,13.1332008 86.7067594,17.5347913 86.7067594,19.610338 C86.7067594,20.5049702 87.1361829,21.1133201 87.6729622,21.1133201 C88.2813121,21.1133201 88.5675944,20.7554672 88.5675944,20.3260437 C88.5675944,20.0039761 88.3170974,19.8250497 88.3170974,19.359841 C88.3170974,17.499006 90.2137177,13.3121272 91.3588469,11.0934394 C92.6829026,11.0934394 94.0427435,11.0218688 95.1520875,10.55666 C93.5417495,13.7415507 91.6451292,18.4294235 91.6451292,21.0775348 C91.6451292,22.6878728 92.2892644,23.2962227 92.9333996,23.2962227 Z M98.3369781,19.8966203 C102.309145,19.8966203 105.207753,16.8190855 106.889662,14.7435388 C107.319085,14.2067594 107.498012,13.9562624 107.498012,13.5626243 C107.498012,13.2047714 107.247515,13.0258449 106.925447,13.0258449 C106.531809,13.0258449 106.0666,13.5984095 105.637177,14.1351889 C104.348907,15.7097416 101.951292,18.4652087 98.945328,18.4652087 C98.2654076,18.4652087 97.94334,17.7852883 97.94334,17.499006 C97.94334,17.2485089 98.0864811,16.9980119 98.5516899,16.8906561 C100.913519,16.3538767 103.919483,14.2425447 103.919483,12.3817097 C103.919483,11.5944334 103.096421,11.0218688 102.34493,11.0218688 C100.484095,11.0218688 98.0149105,12.5964215 96.6550696,15.7813121 C96.2972167,15.888668 95.9751491,16.3180915 95.9751491,16.6759443 C95.9751491,17.0695825 96.1540755,17.1769384 96.1540755,17.3916501 C96.1540755,18.9662028 97.1560636,19.8966203 98.3369781,19.8966203 Z M98.444334,15.6023857 C99.1242545,14.528827 101.020875,12.6322068 101.879722,12.6322068 C102.094433,12.6322068 102.166004,12.7753479 102.166004,12.9900596 C102.166004,13.5984095 99.7326044,15.3518887 98.444334,15.6023857 Z M105.350895,20.0755467 C105.959245,20.0755467 106.281312,18.500994 106.639165,18.0357853 C107.462227,16.9264414 110.861829,13.1332008 111.863817,13.1332008 C112.078529,13.1332008 112.185885,13.3479125 112.185885,13.526839 C112.185885,14.3856859 111.971173,15.4592445 111.971173,16.2465209 C111.971173,17.8210736 112.293241,19.4671968 114.082505,19.4671968 C115.871769,19.4671968 118.233598,16.7833002 119.879722,14.7435388 C120.309145,14.2067594 120.488072,13.9562624 120.488072,13.5626243 C120.488072,13.2047714 120.237575,13.0258449 119.915507,13.0258449 C119.521869,13.0258449 119.05666,13.5984095 118.627237,14.1351889 C117.410537,15.7813121 115.442346,17.9284294 114.619284,17.9284294 C113.939364,17.9284294 113.867793,16.9622266 113.867793,15.8528827 C113.867793,14.6003976 114.082505,13.5626243 114.082505,12.4890656 C114.082505,11.6302187 113.474155,11.1292247 112.686879,11.1292247 C111.112326,11.1292247 108.535785,13.9204771 107.390656,15.2087475 C107.462227,14.9940358 107.927435,13.4194831 108.142147,12.8469185 C108.5,11.8449304 108.643141,11.5228628 108.643141,11.0218688 C108.643141,10.5208748 108.142147,10.2703777 107.89165,10.2703777 C106.961233,10.2703777 106.710736,10.8071571 106.209742,12.417495 C105.529821,14.528827 104.134195,18.2147117 104.134195,19.1093439 C104.134195,19.8250497 104.706759,20.0755467 105.350895,20.0755467 Z"/>
</svg>
